# xmcd CD database file
#
# Track frame offsets:
#	150
#	20442
#	40090
#	61193
#	86823
#	106175
#	135066
#	153024
#	178055
#	202426
#	221026
#	230494
#	251762
#	271561
#	297362
#	330254
#
# Disc length: 4624 seconds
#
# Revision: 0
# Processed by: cddbd v1.5.2PL0 Copyright (c) Steve Scherf et al.
# Submitted via: CD2WAV32(JP) R3.22
#
DISCID=d9120e10
DTITLE=Various Artist - ロマンティック・クリスマス
DYEAR=2009
DGENRE=Alternative
TTITLE0=クリスマスキャロルの頃には/稲垣潤一
TTITLE1=Christmas Time In Blue (Original Version)/佐野元春
TTITLE2=星屑の街/ゴスペラーズ
TTITLE3=I LOVE YOU/徳永英明
TTITLE4=CHRISTMAS FOR YOU/前田亘輝
TTITLE5=雪が降る町/UNICORN
TTITLE6=Christmas time/DEEN
TTITLE7=Sentimental Christmas/浜田省吾
TTITLE8=最後のHoly Night/杉山清貴
TTITLE9=Merry Chistmas Go Round/GWINKO 大沢誉志幸
TTITLE10=KANのChristmas Song/KAN
TTITLE11=特別な一日～a special day～/鈴木雅之
TTITLE12=クリスマスなんて大嫌い!! なんちゃって/CRAZY KEN BAND
TTITLE13=白いクリスマス/JUN SKY WALKER(S)
TTITLE14=世界にMerry X'mas/CHAGE and ASKA
TTITLE15=SILENT NIGHT～WHITE CHRISTMAS/STARDUST REVUE
EXTD=
EXTT0=
EXTT1=
EXTT2=
EXTT3=
EXTT4=
EXTT5=
EXTT6=
EXTT7=
EXTT8=
EXTT9=
EXTT10=
EXTT11=
EXTT12=
EXTT13=
EXTT14=
EXTT15=
PLAYORDER=
